<svg id="Layer_1" data-name="Layer 1" xmlns="http://www.w3.org/2000/svg" viewBox="0 0 595.47 573.2"><defs><style>.cls-1{fill:none;stroke:#231f20;stroke-miterlimit:10;stroke-width:4px;}</style></defs><title>logo</title><polygon class="cls-1" points="389.09 2 536.91 110.71 593.37 286.6 536.91 462.49 389.09 571.2 206.38 571.2 58.56 462.49 2.1 286.6 58.56 110.71 206.38 2 389.09 2"/><line class="cls-1" x1="206.38" y1="571.2" x2="593.37" y2="286.6"/><line class="cls-1" x1="389.09" y1="571.2" x2="536.91" y2="110.71"/><line class="cls-1" x1="536.91" y1="462.49" x2="389.09" y2="2"/><line class="cls-1" x1="593.37" y1="286.6" x2="206.38" y2="2"/><line class="cls-1" x1="536.91" y1="110.71" x2="58.56" y2="110.71"/><line class="cls-1" x1="389.09" y1="2" x2="2.1" y2="286.6"/><line class="cls-1" x1="206.38" y1="2" x2="58.56" y2="462.49"/><line class="cls-1" x1="58.56" y1="110.71" x2="206.38" y2="571.2"/><line class="cls-1" x1="2.1" y1="286.6" x2="389.09" y2="571.2"/><line class="cls-1" x1="58.56" y1="461.09" x2="536.91" y2="461.09"/><line class="cls-1" x1="206.38" y1="571.2" x2="536.91" y2="461.09"/><line class="cls-1" x1="389.09" y1="571.2" x2="593.37" y2="286.6"/><line class="cls-1" x1="536.91" y1="461.09" x2="536.91" y2="110.71"/><line class="cls-1" x1="593.37" y1="286.6" x2="389.09" y2="2"/><line class="cls-1" x1="536.91" y1="110.71" x2="206.38" y2="2"/><line class="cls-1" x1="389.09" y1="2" x2="58.56" y2="110.71"/><line class="cls-1" x1="206.38" y1="2" x2="2.1" y2="286.6"/><line class="cls-1" x1="58.56" y1="110.71" x2="58.56" y2="461.09"/><line class="cls-1" x1="2.1" y1="286.6" x2="206.38" y2="571.2"/><line class="cls-1" x1="389.09" y1="571.2" x2="389.09" y2="2"/><line class="cls-1" x1="536.91" y1="461.09" x2="206.38" y2="2"/><line class="cls-1" x1="593.37" y1="286.6" x2="58.56" y2="110.71"/><line class="cls-1" x1="536.91" y1="110.71" x2="2.1" y2="286.6"/><line class="cls-1" x1="389.09" y1="2" x2="58.56" y2="461.09"/><line class="cls-1" x1="206.38" y1="2" x2="206.38" y2="571.2"/><line class="cls-1" x1="58.56" y1="110.71" x2="389.09" y2="571.2"/><line class="cls-1" x1="2.1" y1="286.6" x2="536.91" y2="461.09"/><line class="cls-1" x1="58.56" y1="461.09" x2="593.37" y2="286.6"/><line class="cls-1" x1="206.38" y1="571.2" x2="536.91" y2="110.71"/><line class="cls-1" x1="389.09" y1="571.2" x2="206.38" y2="2"/><line class="cls-1" x1="536.91" y1="461.09" x2="58.56" y2="110.71"/><line class="cls-1" x1="593.37" y1="286.6" x2="2.1" y2="286.6"/><line class="cls-1" x1="536.91" y1="110.71" x2="58.56" y2="461.09"/><line class="cls-1" x1="389.09" y1="2" x2="206.38" y2="571.2"/></svg>